# xmcd
#
# Track frame offsets:
# 150
# 16640
# 39052
# 59900
# 77950
# 91027
# 106442
# 127857
# 140445
# 160909
# 177072
# 193450
#
# Disc length: 2769 seconds
#
#
# Revision: 0
# Processed by: cddbd v1.5.2PL0 Copyright (c) Steve Scherf et al.
# Submitted via: FreeRIP 2.90 
#
DISCID=950acf0c
DTITLE=Francisco Petronio - Saudade de Minha Terra
DYEAR=1998
DGENRE=country
TTITLE0=Mia gioconda
TTITLE1=Meu primeiro amor
TTITLE2=Chua chua
TTITLE3=Chico mineiro
TTITLE4=Saudade de minha terra
TTITLE5=Tristeza do jeca
TTITLE6=Ouvindo te
TTITLE7=Pingo d agua
TTITLE8=Mazzaropi
TTITLE9=Do lado que o vento vai
TTITLE10=Meu cavalo zaino
TTITLE11=O menino da porteira
EXTD=
EXTT0=
EXTT1=
EXTT2=
EXTT3=
EXTT4=
EXTT5=
EXTT6=
EXTT7=
EXTT8=
EXTT9=
EXTT10=
EXTT11=
PLAYORDER=
